:SAMPLES-PER-SECOND 30
:FULLY-SPECIFIED
:DEGREES
446
root  5.04909 22.0574 -4.52122 -48.024 82.357 -89.5654
RightUpLeg  -55.2605 -0.265214 -3.80055
RightLeg  115.355 3.47186 -5.88544
RightFoot  -17.9426 0.549727 11.6258
RightToes  -1.33073e-015 0 -3.6325e-017
Spine  56.2875 -8.14892 13.6332
Spine1  -10.2046 -1.10694 -1.13061
HEad  -50.5049 9.05927 -11.163
LeftShoulder1  0.429122 -8.00967 5.33443
LeftArm  -51.3778 -69.6964 -4.01117
LeftForeArm  37.9201 -2.71504 0.409712
LeftHand  -0.244104 0.0205437 5.32207
RightShoulder  5.02551 15.9707 19.3148
RightArm  -5.18671 49.2728 46.5885
RightForeArm  32.8086 10.2041 5.14621
RightHand  -37.1357 44.5619 -74.3783
LeftUpLeg  -36.1508 -1.29847 1.26061
LeftLeg  97.3484 -2.73344 14.6578
LeftFoot  0.612844 0.27058 -2.62012
LeftToes  -7.82198e-011 2.46994e-011 -7.94165e-012
447
root  5.68 21.9627 -4.53632 -65.2057 84.0071 -105.912
RightUpLeg  -57.5314 -1.83967 -4.70136
RightLeg  116.777 3.62821 -5.80855
RightFoot  -15.6969 0.328594 11.2955
RightToes  -1.33073e-015 0 -3.6325e-017
Spine  56.2645 -8.61125 14.2766
Spine1  -9.75241 -1.25202 -0.351588
HEad  -49.2983 7.71858 -11.2402
LeftShoulder1  0.352381 -7.12326 5.81953
LeftArm  -46.5332 -72.8687 -12.641
LeftForeArm  39.1002 -2.26427 0.57768
LeftHand  -0.244104 0.0205437 5.32207
RightShoulder  5.48707 15.9608 21.8649
RightArm  -4.29253 46.8001 41.6257
RightForeArm  30.9727 11.4232 5.60369
RightHand  -37.0411 44.531 -74.2642
LeftUpLeg  -33.3639 -4.04129 0.679102
LeftLeg  95.5539 -2.21227 14.3813
LeftFoot  0.652823 0.236625 -2.2901
LeftToes  -7.82198e-011 2.46994e-011 -7.94165e-012
448
root  6.37059 21.7453 -4.43869 -91.481 85.2556 -131.48
RightUpLeg  -58.5678 -3.62755 -5.57194
RightLeg  117.956 3.80763 -5.83192
RightFoot  -9.99286 -0.195396 10.6867
RightToes  -1.33073e-015 0 -3.6325e-017
Spine  55.7393 -8.76846 14.1536
Spine1  -8.88076 -1.56574 0.582373
HEad  -48.5214 6.45643 -11.5919
LeftShoulder1  0.308789 -6.28894 5.99937
LeftArm  -39.0143 -75.6469 -22.3913
LeftForeArm  40.6476 -1.40152 0.374283
LeftHand  -0.244104 0.0205437 5.32207
RightShoulder  5.83658 16.011 23.6859
RightArm  -2.45485 44.2298 38.0258
RightForeArm  28.7168 12.761 5.8152
RightHand  -36.0567 44.187 -73.0936
LeftUpLeg  -30.3419 -6.66112 -0.12728
LeftLeg  93.7438 -1.69212 13.9178
LeftFoot  0.277132 0.245193 -2.42855
LeftToes  -7.82198e-011 2.46994e-011 -7.94165e-012
449
root  7.14573 21.4489 -4.24212 -127.646 85.4567 -166.993
RightUpLeg  -57.5222 -5.34335 -6.63631
RightLeg  118.603 4.04567 -6.07392
RightFoot  -4.11016 -0.74878 11.2776
RightToes  -1.33073e-015 0 -3.6325e-017
Spine  55.0668 -8.9014 13.5131
Spine1  -8.18377 -2.09792 1.0925
HEad  -48.2094 4.92329 -11.6557
LeftShoulder1  0.334807 -5.61861 5.42855
LeftArm  -27.8366 -77.4583 -35.0675
LeftForeArm  42.2052 -1.55948 -0.229634
LeftHand  -0.244104 0.0205437 5.32207
RightShoulder  5.96922 15.9556 24.4912
RightArm  0.49231 39.9458 36.7182
RightForeArm  24.1972 16.7216 5.03154
RightHand  -34.7002 43.6797 -71.4817
LeftUpLeg  -26.9655 -9.29641 -1.12891
LeftLeg  91.6259 -1.10833 13.0687
LeftFoot  -0.153177 0.264561 -2.69145
LeftToes  -7.82198e-011 2.46994e-011 -7.94165e-012
450
root  8.00051 21.215 -3.99618 -152.901 84.102 167.768
RightUpLeg  -55.2111 -6.73433 -6.986
RightLeg  118.065 4.46753 -6.93415
RightFoot  -1.21195 -1.20202 13.4496
RightToes  -1.33073e-015 0 -3.6325e-017
Spine  54.1622 -9.15596 13.6879
Spine1  -8.50549 -2.25918 0.433266
HEad  -47.714 2.65723 -10.6051
LeftShoulder1  0.461194 -6.40866 4.29533
LeftArm  -14.3553 -77.7007 -49.3985
LeftForeArm  44.4838 -2.26397 -1.08725
LeftHand  -0.244104 0.0205437 5.32207
RightShoulder  6.10649 15.8693 25.3775
RightArm  -0.507942 32.9314 36.6434
RightForeArm  20.743 24.8027 4.11597
RightHand  -33.6977 43.2631 -70.3023
LeftUpLeg  -24.1499 -11.8289 -1.4388
LeftLeg  89.0005 -0.474867 11.892
LeftFoot  -0.229201 0.273769 -2.80089
LeftToes  -7.82198e-011 2.46994e-011 -7.94165e-012
451
root  8.9437 21.1149 -3.77861 -150.185 82.7593 169.108
RightUpLeg  -53.5789 -7.45952 -4.87553
RightLeg  116.024 5.25524 -9.01767
RightFoot  -1.13516 -1.43352 15.8981
RightToes  -1.33073e-015 0 -3.6325e-017
Spine  52.5183 -9.54087 15.6666
Spine1  -9.27837 -1.61262 -2.12229
HEad  -47.1946 0.365354 -8.50423
LeftShoulder1  0.608132 -7.42522 3.25793
LeftArm  -1.26673 -76.9423 -63.2548
LeftForeArm  47.9721 -2.7293 -1.90542
LeftHand  -0.244104 0.0205437 5.32207
RightShoulder  6.44837 15.7166 27.485
RightArm  -8.61468 26.2652 36.7956
RightForeArm  23.9004 35.2441 6.53533
RightHand  -32.7444 42.8337 -69.1882
LeftUpLeg  -22.9243 -13.1639 0.267543
LeftLeg  86.0162 0.119426 10.8222
LeftFoot  -0.113988 0.302888 -3.07615
LeftToes  -7.82198e-011 2.46994e-011 -7.94165e-012
452
root  9.95465 21.0601 -3.60981 -130.586 82.3161 -173.606
RightUpLeg  -52.8626 -7.16242 -0.670541
RightLeg  112.946 6.12122 -12.1051
RightFoot  -2.1076 -1.43857 17.5026
RightToes  -1.33073e-015 0 -3.6325e-017
Spine  50.4561 -9.36867 18.3313
Spine1  -9.8993 -0.182663 -5.60972
HEad  -46.6369 -1.06424 -6.76115
LeftShoulder1  0.85577 -8.13985 1.20994
LeftArm  7.36524 -75.6278 -71.691
LeftForeArm  51.6767 -2.89327 -2.76142
LeftHand  -0.244104 0.0205437 5.32207
RightShoulder  6.73816 15.5557 29.3391
RightArm  -13.3413 23.4071 37.7391
RightForeArm  26.4396 44.7559 9.25062
RightHand  -31.4741 42.2457 -67.6807
LeftUpLeg  -22.6954 -12.1371 3.55802
LeftLeg  82.8907 0.648498 10.0574
LeftFoot  0.374611 0.375566 -3.67877
LeftToes  -7.82198e-011 2.46994e-011 -7.94165e-012
453
root  10.941 20.9612 -3.42363 -108.727 82.2153 -153.545
RightUpLeg  -51.5433 -6.18459 2.89625
RightLeg  109.867 6.50261 -14.8646
RightFoot  -3.24473 -1.32257 18.2299
RightToes  -1.33073e-015 0 -3.6325e-017
Spine  48.8926 -8.37409 19.3466
Spine1  -9.87571 1.27403 -8.33283
HEad  -46.2177 -1.3819 -6.00672
LeftShoulder1  1.23563 -8.83954 -1.7772
LeftArm  9.93354 -74.4406 -72.3271
LeftForeArm  53.9978 -2.80923 -3.6817
LeftHand  -0.244104 0.0205437 5.32207
RightShoulder  6.61159 15.4105 28.9352
RightArm  -15.6829 25.375 39.6896
RightForeArm  29.3833 50.6056 11.3588
RightHand  -30.2525 41.6429 -66.2229
LeftUpLeg  -21.9478 -9.3116 6.24249
LeftLeg  79.7788 1.07865 9.21902
LeftFoot  2.06255 0.478864 -4.18273
LeftToes  -7.82198e-011 2.46994e-011 -7.94165e-012
454
root  11.7966 20.8813 -3.16678 -96.2432 82.5703 -141.578
RightUpLeg  -49.1366 -5.31158 4.04108
RightLeg  107.534 6.1968 -15.9544
RightFoot  -4.35687 -1.19198 18.8808
RightToes  -1.33073e-015 0 -3.6325e-017
Spine  48.3763 -7.28904 18.231
Spine1  -10.0574 1.92712 -9.7723
HEad  -45.8205 -1.06684 -5.36417
LeftShoulder1  1.79867 -10.4822 -5.01266
LeftArm  7.67288 -73.046 -66.0182
LeftForeArm  54.6176 -2.35997 -4.79385
LeftHand  -0.244104 0.0205437 5.32207
RightShoulder  6.34212 15.5227 27.2656
RightArm  -17.2435 30.1306 40.9621
RightForeArm  30.9705 53.2665 12.5203
RightHand  -28.8745 40.8665 -64.6205
LeftUpLeg  -20.6379 -6.65656 7.25088
LeftLeg  77.2475 1.28274 8.09932
LeftFoot  4.65856 0.59992 -4.46735
LeftToes  -7.82198e-011 2.46994e-011 -7.94165e-012
455
root  12.5022 20.9189 -2.87457 -94.0895 83.4059 -139.449
RightUpLeg  -46.8909 -4.54625 3.43826
RightLeg  105.863 5.3672 -15.1424
RightFoot  -4.82637 -1.14407 19.3419
RightToes  -1.33073e-015 0 -3.6325e-017
Spine  48.3144 -6.73273 16.596
Spine1  -10.7093 1.78637 -10.854
HEad  -45.83 -0.952759 -4.00884
LeftShoulder1  2.37736 -12.5439 -7.22241
LeftArm  5.13585 -71.4168 -59.5444
LeftForeArm  54.7489 -1.63484 -5.78605
LeftHand  -0.244104 0.0205437 5.32207
RightShoulder  5.91865 15.3873 25.1804
RightArm  -19.4743 36.1784 40.8777
RightForeArm  29.7675 53.5228 12.761
RightHand  -26.5759 39.4036 -61.9726
LeftUpLeg  -20.4592 -5.16619 7.35434
LeftLeg  76.4888 1.20353 7.17444
LeftFoot  6.34718 0.739383 -5.0016
LeftToes  -7.82198e-011 2.46994e-011 -7.94165e-012
456
root  13.1139 21.0764 -2.60916 -100.063 84.2663 -145.805
RightUpLeg  -45.5132 -3.74086 2.30207
RightLeg  104.352 4.33713 -13.3165
RightFoot  -4.50667 -1.18941 19.2343
RightToes  -1.33073e-015 0 -3.6325e-017
Spine  48.2758 -6.64336 15.397
Spine1  -11.9139 1.249 -11.9217
HEad  -46.1803 -1.31755 -2.55719
LeftShoulder1  2.87352 -14.2199 -8.77229
LeftArm  4.31762 -69.8037 -56.6883
LeftForeArm  55.6615 -0.993794 -6.39529
LeftHand  -0.244104 0.0205437 5.32207
RightShoulder  5.27809 14.6933 22.7372
RightArm  -22.5721 42.8877 39.2204
RightForeArm  26.1508 50.6411 11.6871
RightHand  -23.5029 37.1903 -58.3756
LeftUpLeg  -22.6053 -4.39846 7.26026
LeftLeg  78.4468 0.889483 6.8418
LeftFoot  6.35494 0.865012 -5.80634
LeftToes  -7.82198e-011 2.46994e-011 -7.94165e-012
